<svg width="15" height="15" viewBox="0 0 15 15" fill="none" xmlns="http://www.w3.org/2000/svg">
<g clip-path="url(#clip0)">
<path fill-rule="evenodd" clip-rule="evenodd" d="M9.78937 9.78936C9.87644 9.7022 9.97983 9.63305 10.0936 9.58587C10.2075 9.53869 10.3294 9.5144 10.4527 9.5144C10.5759 9.5144 10.6978 9.53869 10.8117 9.58587C10.9255 9.63305 11.0289 9.7022 11.1159 9.78936L14.7253 13.3987C14.9012 13.5745 15.0001 13.813 15.0002 14.0617C15.0003 14.3104 14.9016 14.5489 14.7258 14.7248C14.55 14.9007 14.3115 14.9996 14.0628 14.9997C13.8141 14.9998 13.5756 14.9011 13.3997 14.7253L9.79031 11.1159C9.70314 11.0289 9.63399 10.9255 9.58681 10.8116C9.53963 10.6978 9.51535 10.5758 9.51535 10.4526C9.51535 10.3294 9.53963 10.2074 9.58681 10.0936C9.63399 9.97982 9.70314 9.87643 9.79031 9.78936H9.78937Z" fill="white"/>
<path fill-rule="evenodd" clip-rule="evenodd" d="M6.09375 11.25C6.77088 11.25 7.44138 11.1166 8.06696 10.8575C8.69255 10.5984 9.26097 10.2186 9.73977 9.73977C10.2186 9.26097 10.5984 8.69255 10.8575 8.06696C11.1166 7.44138 11.25 6.77088 11.25 6.09375C11.25 5.41662 11.1166 4.74612 10.8575 4.12054C10.5984 3.49495 10.2186 2.92653 9.73977 2.44773C9.26097 1.96893 8.69255 1.58912 8.06696 1.33C7.44138 1.07087 6.77088 0.9375 6.09375 0.9375C4.72623 0.9375 3.41472 1.48075 2.44773 2.44773C1.48075 3.41472 0.9375 4.72623 0.9375 6.09375C0.9375 7.46127 1.48075 8.77279 2.44773 9.73977C3.41472 10.7068 4.72623 11.25 6.09375 11.25ZM12.1875 6.09375C12.1875 7.70991 11.5455 9.25988 10.4027 10.4027C9.25988 11.5455 7.70991 12.1875 6.09375 12.1875C4.47759 12.1875 2.92762 11.5455 1.78482 10.4027C0.642018 9.25988 0 7.70991 0 6.09375C0 4.47759 0.642018 2.92762 1.78482 1.78482C2.92762 0.642018 4.47759 0 6.09375 0C7.70991 0 9.25988 0.642018 10.4027 1.78482C11.5455 2.92762 12.1875 4.47759 12.1875 6.09375Z" fill="white"/>
</g>
<defs>
<clipPath id="clip0">
<rect width="15" height="15" fill="white"/>
</clipPath>
</defs>
</svg>
