<svg width="15" height="16" viewBox="0 0 15 16" fill="none" xmlns="http://www.w3.org/2000/svg">
<path d="M7.10526 0L2.76316 7.10526H11.4474L7.10526 0ZM7.10526 3.03158L8.62895 5.52632H5.57368L7.10526 3.03158ZM11.4474 8.68421C9.48158 8.68421 7.89474 10.2711 7.89474 12.2368C7.89474 14.2026 9.48158 15.7895 11.4474 15.7895C13.4132 15.7895 15 14.2026 15 12.2368C15 10.2711 13.4132 8.68421 11.4474 8.68421ZM11.4474 14.2105C10.9239 14.2105 10.4219 14.0026 10.0518 13.6324C9.68163 13.2623 9.47368 12.7603 9.47368 12.2368C9.47368 11.7134 9.68163 11.2114 10.0518 10.8412C10.4219 10.4711 10.9239 10.2632 11.4474 10.2632C11.9708 10.2632 12.4728 10.4711 12.843 10.8412C13.2131 11.2114 13.4211 11.7134 13.4211 12.2368C13.4211 12.7603 13.2131 13.2623 12.843 13.6324C12.4728 14.0026 11.9708 14.2105 11.4474 14.2105ZM0 15.3947H6.31579V9.07895H0V15.3947ZM1.57895 10.6579H4.73684V13.8158H1.57895V10.6579Z" fill="#219653"/>
</svg>
