<svg width="15" height="15" viewBox="0 0 15 15" fill="none" xmlns="http://www.w3.org/2000/svg">
<path d="M7.10526 0L2.76316 6.75H11.4474L7.10526 0ZM7.10526 2.88L8.62895 5.25H5.57368L7.10526 2.88ZM11.4474 8.25C9.48158 8.25 7.89474 9.7575 7.89474 11.625C7.89474 13.4925 9.48158 15 11.4474 15C13.4132 15 15 13.4925 15 11.625C15 9.7575 13.4132 8.25 11.4474 8.25ZM11.4474 13.5C10.9239 13.5 10.4219 13.3025 10.0518 12.9508C9.68163 12.5992 9.47368 12.1223 9.47368 11.625C9.47368 11.1277 9.68163 10.6508 10.0518 10.2992C10.4219 9.94754 10.9239 9.75 11.4474 9.75C11.9708 9.75 12.4728 9.94754 12.843 10.2992C13.2131 10.6508 13.4211 11.1277 13.4211 11.625C13.4211 12.1223 13.2131 12.5992 12.843 12.9508C12.4728 13.3025 11.9708 13.5 11.4474 13.5ZM0 14.625H6.31579V8.625H0V14.625ZM1.57895 10.125H4.73684V13.125H1.57895V10.125Z" fill="white"/>
</svg>
