<svg width="15" height="15" viewBox="0 0 15 15" fill="none" xmlns="http://www.w3.org/2000/svg">
<path d="M15.0004 6.56338L14.4793 1.05986C14.4529 0.774648 14.2258 0.549296 13.9406 0.521127L8.43705 0H8.43001C8.37367 0 8.32966 0.0176057 8.29621 0.0510564L0.0514866 8.29578C0.0351655 8.31206 0.022217 8.33141 0.0133822 8.35271C0.00454744 8.37401 0 8.39684 0 8.41989C0 8.44295 0.00454744 8.46578 0.0133822 8.48708C0.022217 8.50838 0.0351655 8.52773 0.0514866 8.54401L6.45642 14.9489C6.48987 14.9824 6.53388 15 6.58142 15C6.62895 15 6.67297 14.9824 6.70642 14.9489L14.9511 6.70423C14.9863 6.66725 15.004 6.6162 15.0004 6.56338ZM6.57966 13.1813L1.81909 8.42077L8.85606 1.3838L13.2047 1.79577L13.6166 6.14437L6.57966 13.1813ZM10.4582 2.99296C9.6043 2.99296 8.90888 3.68838 8.90888 4.54225C8.90888 5.39613 9.6043 6.09155 10.4582 6.09155C11.312 6.09155 12.0075 5.39613 12.0075 4.54225C12.0075 3.68838 11.312 2.99296 10.4582 2.99296ZM10.4582 5.10563C10.1466 5.10563 9.8948 4.85387 9.8948 4.54225C9.8948 4.23063 10.1466 3.97887 10.4582 3.97887C10.7698 3.97887 11.0216 4.23063 11.0216 4.54225C11.0216 4.85387 10.7698 5.10563 10.4582 5.10563Z" fill="white"/>
</svg>
