<svg width="15" height="11" viewBox="0 0 15 11" fill="none" xmlns="http://www.w3.org/2000/svg">
<path d="M14.5305 7.65187V1.43468C14.5305 0.645468 13.8978 0 13.1243 0H6.56217C5.78871 0 5.15599 0.645718 5.15599 1.43468H3.37483C2.77286 1.43468 2.29689 1.43468 1.9549 1.84016C1.63317 2.22164 1.57017 2.85711 1.57017 3.82606C1.57017 4.35228 1.34418 4.59502 1.0312 4.93125C0.676216 5.31223 0.234238 5.78721 0.234238 6.69567V7.71911C0.162947 7.7614 0.103871 7.8215 0.0628071 7.8935C0.0217428 7.96551 9.94445e-05 8.04695 0 8.12984V8.60807C0 8.87106 0.211239 9.0863 0.468727 9.0863H0.956202C0.944367 9.16551 0.938102 9.24545 0.937453 9.32553C0.937453 10.25 1.67217 10.9995 2.57812 10.9995C3.48358 10.9995 4.21879 10.25 4.21879 9.32578C4.21879 9.24429 4.21129 9.16479 4.20029 9.08655H6.0937V9.32578C6.0937 9.58852 6.30493 9.80376 6.56242 9.80376H8.43733C8.69507 9.80376 8.90606 9.58852 8.90606 9.32578V9.08655H10.5655C10.5536 9.16576 10.5474 9.2457 10.5467 9.32578C10.5467 10.25 11.2814 10.9995 12.1874 10.9995C13.0928 10.9995 13.8281 10.25 13.8281 9.32578C13.8281 9.24429 13.8206 9.16479 13.8096 9.08655H14.5313C14.789 9.08655 15 8.87131 15 8.60832V8.13009C14.9993 7.86736 14.7883 7.65187 14.5305 7.65187ZM13.1243 6.9344H6.56217C6.17444 6.9344 5.85896 6.61242 5.85896 6.21694V5.26049H6.32768V6.21694C6.32722 6.27971 6.35162 6.34012 6.39556 6.38495C6.4395 6.42978 6.4994 6.45539 6.56217 6.45618H13.1243C13.1871 6.45539 13.247 6.42978 13.291 6.38495C13.3349 6.34012 13.3593 6.27971 13.3588 6.21694V5.26049H13.8276V6.21694C13.8276 6.61242 13.5121 6.9344 13.1243 6.9344ZM7.79311 3.9333V4.14229H7.27364V4.55627H7.85461V4.76776H7.0219V3.35808H7.82386V3.56957H7.27364V3.93355H7.79311V3.9333ZM6.79666 1.9129C6.73385 1.91224 6.67387 1.88668 6.6299 1.84182C6.58593 1.79696 6.56157 1.73648 6.56217 1.67367C6.56217 1.54142 6.66717 1.43443 6.79666 1.43443C6.9264 1.43443 7.03115 1.54142 7.03115 1.67367C7.03168 1.73646 7.0073 1.7969 6.96335 1.84174C6.91939 1.88659 6.85945 1.91218 6.79666 1.9129ZM7.0309 5.97795C7.0312 6.00904 7.02537 6.03988 7.01374 6.06872C7.00212 6.09756 6.98493 6.12382 6.96315 6.14601C6.94138 6.1682 6.91545 6.18589 6.88684 6.19806C6.85823 6.21023 6.8275 6.21665 6.79641 6.21694C6.66692 6.21694 6.56192 6.10994 6.56192 5.97795C6.56192 5.84596 6.66692 5.73896 6.79641 5.73896C6.92615 5.73896 7.0309 5.84596 7.0309 5.97795ZM8.89356 4.55202V4.76776H8.07535V3.35808H8.32683V4.55202H8.89356ZM9.08305 4.76776V3.35808H9.33528V4.76776H9.08305ZM9.49228 3.35808H9.76676L9.95475 3.9983C10.008 4.17554 10.0532 4.34103 10.0897 4.51252H10.094C10.1305 4.34528 10.18 4.17404 10.2355 4.0023L10.436 3.35808H10.7037L10.2272 4.76776H9.93825L9.49228 3.35808ZM11.6239 3.9333V4.14229H11.1039V4.55627H11.6849V4.76776H10.8522V3.35808H11.6547V3.56957H11.1039V3.93355H11.6239V3.9333ZM12.6556 1.67392C12.6556 1.54167 12.7606 1.43468 12.8901 1.43468C13.0198 1.43468 13.1246 1.54167 13.1246 1.67392C13.1252 1.73673 13.1008 1.79721 13.0569 1.84207C13.0129 1.88693 12.9529 1.91249 12.8901 1.91315C12.8273 1.91236 12.7674 1.88675 12.7235 1.84192C12.6796 1.79709 12.6552 1.73669 12.6556 1.67392ZM13.1243 5.97795C13.1246 6.00904 13.1188 6.03988 13.1072 6.06872C13.0956 6.09756 13.0784 6.12382 13.0566 6.14601C13.0348 6.1682 13.0089 6.18589 12.9803 6.19806C12.9517 6.21023 12.9209 6.21665 12.8899 6.21694C12.7604 6.21694 12.6554 6.10994 12.6554 5.97795C12.6554 5.84596 12.7604 5.73896 12.8899 5.73896C13.0196 5.73896 13.1243 5.84596 13.1243 5.97795ZM12.7121 3.46083C12.7876 3.52557 12.8309 3.62357 12.8309 3.74306C12.8309 3.92505 12.7106 4.0488 12.5814 4.0963V4.10279C12.6799 4.14029 12.7389 4.23879 12.7736 4.37428C12.8166 4.55002 12.8531 4.71301 12.8824 4.76776H12.6224C12.6021 4.72576 12.5691 4.61102 12.5304 4.43528C12.4916 4.25129 12.4261 4.19254 12.2826 4.18829H12.1559V4.76776H11.9062V3.37708C12.032 3.35688 12.1594 3.34701 12.2869 3.34758C12.4849 3.34758 12.6199 3.38133 12.7121 3.46083ZM13.6033 4.17379V4.76776H13.3518V4.17979L12.9164 3.35783H13.2023L13.3681 3.71956C13.4151 3.82406 13.4506 3.9038 13.4873 4.00005H13.4913C13.5258 3.9103 13.5646 3.82231 13.6118 3.71956L13.7773 3.35783H14.062L13.6033 4.17379ZM5.85921 1.43468C5.85921 1.03895 6.17469 0.717214 6.56242 0.717214H13.1243C13.5121 0.717214 13.8276 1.03895 13.8276 1.43468V2.86936H13.3588V1.43468C13.3594 1.37189 13.335 1.31145 13.291 1.2666C13.2471 1.22176 13.1871 1.19617 13.1243 1.19544H6.56217C6.4994 1.19623 6.4395 1.22184 6.39556 1.26667C6.35162 1.3115 6.32722 1.37191 6.32768 1.43468V2.86936H5.85896V1.43468H5.85921ZM5.62472 3.37708C5.75736 3.35637 5.89146 3.3465 6.0257 3.34758C6.28319 3.34758 6.46143 3.40208 6.58842 3.51057C6.72141 3.62157 6.80316 3.78881 6.80316 4.02955C6.80316 4.28029 6.71916 4.46853 6.58842 4.59002C6.45143 4.71751 6.23244 4.78251 5.96445 4.78251C5.81696 4.78251 5.70672 4.77401 5.62472 4.76351V3.37708ZM0.703215 6.69542C0.703215 5.26049 2.03915 5.26049 2.03915 3.82581C2.03915 1.9129 2.31738 1.9129 3.37508 1.9129H5.15624V7.65187H0.703215V6.69542ZM1.0977 8.60832H0.468727V8.13009H1.43118C1.29369 8.26709 1.18119 8.42933 1.0977 8.60832ZM2.80611 10.2502C2.79036 10.1337 2.69662 10.043 2.57812 10.043C2.46013 10.043 2.36588 10.1337 2.35013 10.2502C2.1806 10.2073 2.02667 10.1172 1.90615 9.9905C1.9516 9.95547 1.98299 9.90533 1.99464 9.84915C2.00629 9.79297 1.99742 9.73447 1.96965 9.68427C1.94183 9.63539 1.89706 9.5984 1.84381 9.58029C1.79055 9.56219 1.73252 9.56423 1.68067 9.58602C1.65742 9.50278 1.64092 9.41628 1.64092 9.32553C1.64092 9.23479 1.65717 9.14829 1.68042 9.06505C1.73231 9.087 1.79047 9.0891 1.84381 9.07093C1.89715 9.05277 1.94194 9.01562 1.96965 8.96655C1.99735 8.91637 2.00618 8.85793 1.99453 8.80181C1.98289 8.74568 1.95154 8.69558 1.90615 8.66057C2.02674 8.53386 2.18062 8.44374 2.35013 8.40058C2.36588 8.51732 2.45963 8.60782 2.57812 8.60782C2.69637 8.60782 2.79036 8.51732 2.80611 8.40058C2.97561 8.44363 3.1295 8.53366 3.25009 8.66032C3.20469 8.69538 3.17335 8.74554 3.16174 8.80172C3.15014 8.8579 3.15904 8.91637 3.18684 8.96655C3.21459 9.01551 3.25935 9.05257 3.31263 9.07068C3.36591 9.0888 3.42399 9.0867 3.47583 9.0648C3.49908 9.14829 3.51532 9.23454 3.51532 9.32553C3.51532 9.41628 3.49908 9.50228 3.47583 9.58577C3.42397 9.56383 3.36585 9.56174 3.31255 9.57991C3.25925 9.59808 3.21451 9.63522 3.18684 9.68427C3.15904 9.73444 3.15014 9.79292 3.16174 9.8491C3.17335 9.90528 3.20469 9.95544 3.25009 9.9905C3.12936 10.117 2.97552 10.207 2.80611 10.2502ZM8.37858 9.08655H6.62092C6.45968 9.08655 6.32793 8.97905 6.32793 8.84731C6.32793 8.71606 6.45968 8.60832 6.62092 8.60832H8.37858C8.53982 8.60832 8.67157 8.71606 8.67157 8.84731C8.67157 8.97905 8.53957 9.08655 8.37858 9.08655ZM10.7065 8.60832H8.84031C8.80016 8.53645 8.74171 8.47648 8.67089 8.4345C8.60007 8.39253 8.5194 8.37004 8.43708 8.36933H6.56217C6.39018 8.36933 6.24069 8.46633 6.15919 8.60832H4.05855C3.97603 8.4306 3.86308 8.26868 3.72481 8.12984H11.0399C10.9027 8.26709 10.79 8.42933 10.7065 8.60832ZM12.4149 10.2502C12.3991 10.1337 12.3054 10.043 12.1869 10.043C12.0689 10.043 11.9749 10.1337 11.9589 10.2502C11.7895 10.2071 11.6357 10.1171 11.5152 9.9905C11.5606 9.95544 11.5919 9.90528 11.6035 9.8491C11.6151 9.79292 11.6062 9.73444 11.5784 9.68427C11.5506 9.63539 11.5058 9.5984 11.4526 9.58029C11.3993 9.56219 11.3413 9.56423 11.2894 9.58602C11.2659 9.50303 11.2494 9.41653 11.2494 9.32578C11.2494 9.23504 11.2659 9.14854 11.2892 9.0653C11.341 9.08724 11.3992 9.08932 11.4525 9.07116C11.5058 9.05299 11.5505 9.01585 11.5782 8.9668C11.606 8.91667 11.6149 8.85822 11.6033 8.80208C11.5917 8.74593 11.5603 8.6958 11.5149 8.66082C11.6355 8.53425 11.7893 8.44416 11.9587 8.40083C11.9747 8.51757 12.0684 8.60807 12.1866 8.60807C12.3049 8.60807 12.3989 8.51757 12.4146 8.40083C12.5841 8.44388 12.738 8.53391 12.8586 8.66057C12.8133 8.69569 12.782 8.74585 12.7704 8.802C12.7588 8.85815 12.7677 8.9166 12.7954 8.9668C12.8231 9.01572 12.8679 9.05274 12.9212 9.07085C12.9744 9.08896 13.0325 9.0869 13.0843 9.06505C13.1076 9.14854 13.1238 9.23479 13.1238 9.32578C13.1238 9.41653 13.1078 9.50253 13.0843 9.58602C13.0325 9.56408 12.9744 9.56199 12.9211 9.58016C12.8678 9.59833 12.823 9.63547 12.7954 9.68452C12.7677 9.73472 12.7588 9.79317 12.7704 9.84932C12.782 9.90547 12.8133 9.95563 12.8586 9.99075C12.738 10.1172 12.5842 10.2071 12.4149 10.2502ZM14.5305 8.60832H13.6673C13.585 8.43064 13.4721 8.26878 13.3338 8.13009H14.5305V8.60832Z" fill="#219653"/>
</svg>
