<svg width="18" height="18" viewBox="0 0 18 18" fill="none" xmlns="http://www.w3.org/2000/svg">
<path d="M9.83335 15.6C11.3334 15.4167 12.625 14.7917 13.7084 13.7084C14.7917 12.625 15.4167 11.3334 15.6 9.83335H13.1C12.9167 10.6667 12.5334 11.3667 11.95 11.95C11.3667 12.5334 10.6667 12.9167 9.83335 13.1V15.6ZM7.33335 5.66669H10.6667L13.1667 8.16669H15.6C15.3917 6.54169 14.6584 5.15002 13.3917 4.00002C12.1334 2.88335 10.6667 2.33335 9.00002 2.33335C7.33335 2.33335 5.86669 2.88335 4.60835 4.00002C3.34169 5.15002 2.60835 6.54169 2.40002 8.16669H4.83335L7.33335 5.66669ZM8.16669 15.6V13.1C7.33335 12.9167 6.63335 12.5334 6.05002 11.95C5.46669 11.3667 5.08335 10.6667 4.90002 9.83335H2.40002C2.58335 11.3084 3.20835 12.5834 4.29169 13.6667C5.37502 14.75 6.66669 15.3917 8.16669 15.6ZM9.00002 0.666687C11.2917 0.666687 13.25 1.50002 14.875 3.12502C16.5 4.75002 17.3334 6.70835 17.3334 9.00002C17.3334 11.2917 16.5 13.25 14.875 14.875C13.25 16.5 11.2917 17.3334 9.00002 17.3334C6.70835 17.3334 4.75002 16.5 3.12502 14.875C1.50002 13.25 0.666687 11.2917 0.666687 9.00002C0.666687 6.70835 1.50002 4.75002 3.12502 3.12502C4.75002 1.50002 6.70835 0.666687 9.00002 0.666687Z" fill="#2F80ED"/>
</svg>
