<svg width="15" height="14" viewBox="0 0 15 14" fill="none" xmlns="http://www.w3.org/2000/svg">
<path d="M14.375 0.875H11.875L11.875 8.375H14.375L14.375 0.875ZM0.625 7.75C0.625 8.4375 1.1875 9 1.875 9L5.81875 9L5.225 11.8562L5.20625 12.0563C5.20625 12.3125 5.3125 12.55 5.48125 12.7187L6.14375 13.375L10.2562 9.25625C10.4875 9.03125 10.625 8.71875 10.625 8.375L10.625 2.125C10.625 1.4375 10.0625 0.875 9.375 0.875L3.75 0.875C3.23125 0.875 2.7875 1.1875 2.6 1.6375L0.7125 6.04375C0.65625 6.1875 0.625 6.3375 0.625 6.5V7.75Z" fill="#BDBDBD"/>
</svg>
