<svg width="15" height="15" viewBox="0 0 15 15" fill="none" xmlns="http://www.w3.org/2000/svg">
<path d="M6.69652 7.5C6.69652 7.71312 6.78119 7.91751 6.93188 8.06821C7.08258 8.21891 7.28697 8.30357 7.50009 8.30357C7.71322 8.30357 7.91761 8.21891 8.06831 8.06821C8.219 7.91751 8.30367 7.71312 8.30367 7.5C8.30367 7.28688 8.219 7.08249 8.06831 6.93179C7.91761 6.78109 7.71322 6.69643 7.50009 6.69643C7.28697 6.69643 7.08258 6.78109 6.93188 6.93179C6.78119 7.08249 6.69652 7.28688 6.69652 7.5ZM10.0447 7.5C10.0447 7.71312 10.1294 7.91751 10.2801 8.06821C10.4308 8.21891 10.6352 8.30357 10.8483 8.30357C11.0614 8.30357 11.2658 8.21891 11.4165 8.06821C11.5672 7.91751 11.6519 7.71312 11.6519 7.5C11.6519 7.28688 11.5672 7.08249 11.4165 6.93179C11.2658 6.78109 11.0614 6.69643 10.8483 6.69643C10.6352 6.69643 10.4308 6.78109 10.2801 6.93179C10.1294 7.08249 10.0447 7.28688 10.0447 7.5ZM3.34831 7.5C3.34831 7.71312 3.43297 7.91751 3.58367 8.06821C3.73437 8.21891 3.93876 8.30357 4.15188 8.30357C4.365 8.30357 4.56939 8.21891 4.72009 8.06821C4.87079 7.91751 4.95545 7.71312 4.95545 7.5C4.95545 7.28688 4.87079 7.08249 4.72009 6.93179C4.56939 6.78109 4.365 6.69643 4.15188 6.69643C3.93876 6.69643 3.73437 6.78109 3.58367 6.93179C3.43297 7.08249 3.34831 7.28688 3.34831 7.5ZM14.4175 4.59375C14.0392 3.69475 13.4967 2.88783 12.8053 2.19475C12.1188 1.50569 11.3037 0.95796 10.4063 0.582589C9.48559 0.195871 8.50791 0 7.50009 0H7.46661C6.4521 0.00502232 5.4694 0.205915 4.5453 0.601004C3.6556 0.980225 2.84819 1.52892 2.16806 2.21652C1.48335 2.90792 0.945966 3.7115 0.574314 4.60714C0.189269 5.5346 -0.00492735 6.52065 9.49766e-05 7.53516C0.00577564 8.69777 0.280829 9.84326 0.803666 10.8817V13.4263C0.803666 13.6306 0.884801 13.8265 1.02922 13.9709C1.17364 14.1153 1.36952 14.1964 1.57376 14.1964H4.12007C5.15851 14.7193 6.30399 14.9943 7.46661 15H7.50177C8.50456 15 9.47721 14.8058 10.393 14.4258C11.2858 14.0549 12.0978 13.5135 12.7836 12.832C13.475 12.1473 14.0191 11.3471 14.3991 10.4548C14.7942 9.53069 14.9951 8.54799 15.0001 7.53348C15.0051 6.51395 14.8076 5.52455 14.4175 4.59375ZM11.8879 11.9263C10.7144 13.0882 9.15746 13.7277 7.50009 13.7277H7.47163C6.46215 13.7227 5.45936 13.4715 4.57376 12.9994L4.43313 12.9241H2.07599V10.567L2.00065 10.4263C1.52855 9.54074 1.27744 8.53795 1.27242 7.52846C1.26572 5.85938 1.90355 4.29241 3.07376 3.11216C4.24228 1.93192 5.80422 1.27902 7.47331 1.27232H7.50177C8.33882 1.27232 9.15076 1.43471 9.91583 1.75614C10.6625 2.0692 11.3321 2.51953 11.908 3.09542C12.4822 3.66964 12.9342 4.34096 13.2473 5.08761C13.5721 5.86105 13.7345 6.68136 13.7311 7.52846C13.7211 9.19587 13.0665 10.7578 11.8879 11.9263Z" fill="white"/>
</svg>
