<svg width="18" height="15" viewBox="0 0 18 15" fill="none" xmlns="http://www.w3.org/2000/svg">
<path d="M14.9567 3.64248C14.8082 3.39625 14.5988 3.19244 14.3486 3.05071C14.0984 2.90897 13.8159 2.8341 13.5284 2.83331H11.5V1.16665C11.5 0.945633 11.4122 0.733671 11.2559 0.577391C11.0997 0.421111 10.8877 0.333313 10.6667 0.333313H2.33335C1.41419 0.333313 0.666687 1.08081 0.666687 1.99998V10.3333C0.666687 10.955 1.01335 11.4925 1.51919 11.7783C1.62169 13.2941 2.87502 14.5 4.41669 14.5C5.88252 14.5 7.08669 13.4091 7.29085 12H9.87585C10.08 13.4091 11.2842 14.5 12.75 14.5C14.2159 14.5 15.42 13.4091 15.6242 12H15.6667C16.5859 12 17.3334 11.2525 17.3334 10.3333V7.83331C17.3335 7.68207 17.2923 7.53366 17.2142 7.40415L14.9567 3.64248ZM11.5 4.49998H13.5284L15.0284 6.99998H11.5V4.49998ZM4.41669 12.8333C3.72752 12.8333 3.16669 12.2725 3.16669 11.5833C3.16669 10.8941 3.72752 10.3333 4.41669 10.3333C5.10585 10.3333 5.66669 10.8941 5.66669 11.5833C5.66669 12.2725 5.10585 12.8333 4.41669 12.8333ZM12.75 12.8333C12.0609 12.8333 11.5 12.2725 11.5 11.5833C11.5 10.8941 12.0609 10.3333 12.75 10.3333C13.4392 10.3333 14 10.8941 14 11.5833C14 12.2725 13.4392 12.8333 12.75 12.8333Z" fill="#2F80ED"/>
</svg>
