<svg width="15" height="15" viewBox="0 0 15 15" fill="none" xmlns="http://www.w3.org/2000/svg">
<path d="M15 9.9375C15 10.5 14.25 10.875 13.375 11.0625C12.8125 9.46875 11.6875 8.25 10.375 7.40625C10.5 7.125 10.625 6.9375 10.75 6.65625H11.25C13.1875 6.5625 15 8.34375 15 9.9375ZM4.25 6.5625H3.75C1.8125 6.5625 0 8.34375 0 9.9375C0 10.5 0.75 10.875 1.625 11.0625C2.1875 9.46875 3.3125 8.25 4.625 7.40625L4.25 6.5625ZM7.5 7.5C8.875 7.5 10 5.8125 10 3.75C10 1.6875 8.875 0 7.5 0C6.125 0 5 1.6875 5 3.75C5 5.8125 6.125 7.5 7.5 7.5ZM7.5 8.4375C4.9375 8.4375 2.5 10.875 2.5 13.125C2.5 15 7.5 15 7.5 15C7.5 15 12.5 15 12.5 13.125C12.5 10.875 10.0625 8.4375 7.5 8.4375ZM11.0625 5.625H11.25C12.3125 5.625 13.125 4.40625 13.125 2.8125C13.125 1.21875 12.3125 0 11.25 0C10.9375 0 10.6875 0.0937502 10.4375 0.28125C10.9375 1.21875 11.25 2.4375 11.25 3.75C11.25 4.40625 11.1875 5.0625 11.0625 5.625ZM3.75 5.625H3.9375C3.8125 5.0625 3.75 4.40625 3.75 3.75C3.75 2.4375 4.0625 1.21875 4.5625 0.28125C4.3125 0.0937502 4.0625 0 3.75 0C2.6875 0 1.875 1.21875 1.875 2.8125C1.875 4.40625 2.6875 5.625 3.75 5.625Z" fill="white"/>
</svg>
