<svg width="15" height="11" viewBox="0 0 15 11" fill="none" xmlns="http://www.w3.org/2000/svg">
<path d="M14.7655 7.27463H14.5103C14.4718 6.86639 14.3818 6.2729 14.2718 5.62741L14.6363 5.55166C14.6937 5.53598 14.7427 5.4984 14.7728 5.44699C14.8028 5.39557 14.8115 5.33442 14.797 5.27666L14.3063 2.7312C14.2996 2.70269 14.2873 2.67577 14.2702 2.65201C14.2531 2.62825 14.2315 2.60811 14.2065 2.59275C14.1816 2.57739 14.1539 2.56711 14.125 2.56251C14.096 2.55792 14.0665 2.55909 14.038 2.56596L13.7035 2.60221C13.6213 2.19196 13.567 1.93022 13.567 1.93022C13.567 1.93022 13.8885 1.81172 13.8885 1.25023H12.414C12.414 0.894985 12.3013 0.656739 12.1815 0.500242H12.662C13.037 0.500242 13.037 0 12.662 0H8.12786C7.75287 0 7.75287 0.500242 8.12786 0.500242H8.64636C8.52661 0.656739 8.41386 0.894985 8.41386 1.25023H7.83987C7.31963 1.25023 6.68714 1.27123 6.0904 2.37346C5.55741 3.35744 4.77742 4.39343 4.74017 4.43143C1.64072 4.43143 1.15573 5.47166 0.683239 6.2949C0.525991 6.56889 0.464742 7.04863 0.445993 7.50437H0.234496C0.172889 7.50417 0.113693 7.5283 0.069781 7.57151C0.0258685 7.61472 0.000790346 7.67352 0 7.73512V8.88685C0 9.0136 0.105248 9.11735 0.234496 9.11735H0.703238C0.764842 9.11768 0.824076 9.09363 0.86801 9.05045C0.911943 9.00726 0.937009 8.94845 0.937734 8.88685V8.65661H1.41998C1.53672 9.69309 2.42946 10.5001 3.51569 10.5001C4.60192 10.5001 5.49466 9.69309 5.61141 8.65686H5.76565V8.8871C5.76565 9.01385 5.8709 9.1176 6.00015 9.1176H9.0001C9.0617 9.11793 9.12094 9.09388 9.16487 9.0507C9.20881 9.00751 9.23387 8.9487 9.2346 8.8871V8.65686H9.38884C9.50509 9.69309 10.3981 10.5001 11.4843 10.5001C12.5705 10.5001 13.4633 9.69309 13.58 8.65686H13.8885C13.8885 8.65686 13.9638 8.65586 14.0623 8.61461V8.8871C14.0623 9.01385 14.1675 9.1176 14.2968 9.1176H14.7655C14.8271 9.11793 14.8863 9.09388 14.9303 9.0507C14.9742 9.00751 14.9993 8.9487 15 8.8871V7.50488C14.9991 7.44334 14.974 7.38463 14.9301 7.34151C14.8862 7.2984 14.827 7.27436 14.7655 7.27463ZM9.1521 0.500491H11.6756C11.9251 0.842736 11.8996 1.25048 11.8996 1.25048H8.92785C8.9281 1.25048 8.90235 0.842736 9.1521 0.500491ZM3.51569 9.61109C2.8502 9.61109 2.31046 9.08035 2.31046 8.42636C2.31046 7.77237 2.8502 7.24138 3.51569 7.24138C4.18118 7.24138 4.72092 7.77237 4.72092 8.42636C4.72092 9.08035 4.18118 9.61109 3.51569 9.61109ZM11.4843 9.61109C10.8188 9.61109 10.2791 9.08035 10.2791 8.42636C10.2791 7.77237 10.8188 7.24138 11.4843 7.24138C12.1498 7.24138 12.6895 7.77237 12.6895 8.42636C12.6895 9.08035 12.1498 9.61109 11.4843 9.61109ZM13.863 8.15686H13.5738C13.4393 7.13913 12.5565 6.35289 11.4843 6.35289C10.4121 6.35289 9.52934 7.13913 9.39484 8.15686H5.60516C5.47066 7.13913 4.58792 6.35289 3.51569 6.35289C2.44321 6.35289 1.56072 7.13913 1.42623 8.15686H0.941984C0.932235 7.80987 0.941984 7.42463 0.978984 7.10588C1.46773 6.82214 1.66547 6.41014 1.47323 6.37389C1.39172 6.3587 1.30886 6.35199 1.22598 6.35389C1.63947 5.63741 2.16171 4.93192 4.74017 4.93192H4.95017L5.09717 4.78192C5.18416 4.69342 5.99215 3.60469 6.53014 2.61171C6.99638 1.75047 7.40613 1.75047 7.83987 1.75047H13.0188L13.0773 2.03197C13.3425 3.3097 14.0308 6.80539 14.0308 7.62212C14.031 7.98112 13.9328 8.13611 13.863 8.15686Z" fill="#219653"/>
</svg>
